<svg xmlns="http://www.w3.org/2000/svg" width="2200" height="1400" viewBox="0 0 2200 1400" role="img" aria-labelledby="title desc">
  <title id="title">TTN IR Model Architecture</title>
  <desc id="desc">Focused model architecture diagram for the Tree Tensor Network IR classifier implemented in model.py.</desc>
  <defs>
    <linearGradient id="bg" x1="0%" y1="0%" x2="100%" y2="100%">
      <stop offset="0%" stop-color="#f7f9fd"/>
      <stop offset="100%" stop-color="#eef3fb"/>
    </linearGradient>
    <filter id="shadow" x="-20%" y="-20%" width="140%" height="140%">
      <feDropShadow dx="0" dy="6" stdDeviation="12" flood-color="#8ca3c4" flood-opacity="0.18"/>
    </filter>
    <marker id="arrow" markerWidth="12" markerHeight="12" refX="10" refY="6" orient="auto">
      <path d="M0,0 L12,6 L0,12 Z" fill="#7d94b6"/>
    </marker>
    <style>
      .title { font: 700 32px "Avenir Next", "Segoe UI", Helvetica, Arial, sans-serif; fill: #26354a; }
      .subtitle { font: 500 16px "Avenir Next", "Segoe UI", Helvetica, Arial, sans-serif; fill: #5b6d86; }
      .section { font: 700 18px "Avenir Next", "Segoe UI", Helvetica, Arial, sans-serif; fill: #33455f; }
      .card-title { font: 700 22px "Avenir Next", "Segoe UI", Helvetica, Arial, sans-serif; fill: #304059; }
      .card-subtitle { font: 600 13px "Avenir Next", "Segoe UI", Helvetica, Arial, sans-serif; fill: #647590; letter-spacing: 0.4px; }
      .body { font: 500 15px "Avenir Next", "Segoe UI", Helvetica, Arial, sans-serif; fill: #43546d; }
      .small { font: 500 12px "Avenir Next", "Segoe UI", Helvetica, Arial, sans-serif; fill: #5f6f87; }
      .tiny { font: 600 11px "Avenir Next", "Segoe UI", Helvetica, Arial, sans-serif; fill: #657791; letter-spacing: 0.2px; }
      .mono { font: 600 13px Menlo, Monaco, Consolas, monospace; fill: #46617f; }
      .frame { fill: rgba(255,255,255,0.8); stroke: #a8bad2; stroke-width: 2.2; rx: 26; filter: url(#shadow); }
      .panel { fill: #fcfdff; stroke: #c3d0e0; stroke-width: 1.8; rx: 22; }
      .blue { fill: #e7effc; stroke: #aebfda; stroke-width: 1.8; rx: 18; }
      .green { fill: #eaf6e8; stroke: #aecaae; stroke-width: 1.8; rx: 18; }
      .amber { fill: #fff4e3; stroke: #dcc291; stroke-width: 1.8; rx: 18; }
      .purple { fill: #f0ebfa; stroke: #c3bbdf; stroke-width: 1.8; rx: 18; }
      .rose { fill: #fbeae8; stroke: #d6b4b0; stroke-width: 1.8; rx: 18; }
      .chip { fill: #f8fbff; stroke: #b7c7dc; stroke-width: 1.6; rx: 14; }
      .line { fill: none; stroke: #aebfd6; stroke-width: 1.8; marker-end: url(#arrow); }
      .soft-line { fill: none; stroke: #ccd8e8; stroke-width: 1.4; }
      .tree-line { fill: none; stroke: #c4d2e4; stroke-width: 2; }
      .leaf { fill: #d7e6fa; stroke: #8fa9ca; stroke-width: 1.4; }
      .merge { fill: #d8d1f1; stroke: #9188b7; stroke-width: 1.4; }
      .root { fill: #bfe29c; stroke: #6d9e57; stroke-width: 1.6; }
      .out { fill: #ff7c72; stroke: #b95955; stroke-width: 1.5; }
    </style>
  </defs>

  <rect x="0" y="0" width="2200" height="1400" fill="url(#bg)"/>

  <text x="1100" y="56" text-anchor="middle" class="title">TTN-Inspired IR Classifier</text>
  <text x="1100" y="86" text-anchor="middle" class="subtitle">Focused architecture view for [`src/spectroscopy_qml/ir/tree_tensor_network/model.py`] with an explicit binary reduction tree</text>

  <rect x="44" y="118" width="2112" height="1234" class="frame"/>

  <rect x="84" y="164" width="446" height="1124" class="panel"/>
  <text x="114" y="206" class="card-title">1. Input And Embedding Path</text>
  <text x="114" y="232" class="card-subtitle">FROM RAW IR SPECTRUM TO LEAF STATES</text>

  <rect x="116" y="270" width="382" height="150" class="chip"/>
  <rect x="140" y="303" width="74" height="78" fill="#ffffff" stroke="#7e92ae" stroke-width="2"/>
  <path d="M150 367 L158 347 L166 372 L174 329 L182 365 L190 353 L198 359 L206 335" stroke="#2f4059" stroke-width="3" fill="none"/>
  <rect x="168" y="316" width="30" height="34" fill="none" stroke="#ff8d86" stroke-width="2"/>
  <text x="238" y="314" class="card-title">IR Spectrum Input</text>
  <text x="238" y="340" class="body">`x` with shape `(batch, 1800)`</text>
  <text x="238" y="365" class="small">each sample is one interpolated IR spectrum</text>
  <text x="238" y="388" class="small">model expects a fixed-length vector</text>

  <rect x="116" y="446" width="382" height="136" class="blue"/>
  <text x="307" y="482" text-anchor="middle" class="card-title">Segmentation</text>
  <text x="307" y="508" text-anchor="middle" class="mono">_compute_segment_slices() + _segment_input()</text>
  <text x="307" y="534" text-anchor="middle" class="body">1800 values -> 32 contiguous segments</text>
  <text x="307" y="558" text-anchor="middle" class="small">first 8 segments have length 57, remaining 24 have length 56</text>

  <rect x="116" y="608" width="382" height="138" class="green"/>
  <text x="307" y="644" text-anchor="middle" class="card-title">QuantumFeatureMap</text>
  <text x="307" y="670" text-anchor="middle" class="body">scale by `x_max`, then map each scalar to</text>
  <text x="307" y="695" text-anchor="middle" class="mono">[cos(a * x_scaled), sin(a * x_scaled)]</text>
  <text x="307" y="721" text-anchor="middle" class="small">output shape `(batch, 32, 57, 2)` using padded max length 57</text>

  <rect x="116" y="772" width="382" height="146" class="amber"/>
  <text x="307" y="808" text-anchor="middle" class="card-title">SegmentCompressor</text>
  <text x="307" y="834" text-anchor="middle" class="body">mask padded values, flatten each segment,</text>
  <text x="307" y="859" text-anchor="middle" class="body">apply one linear projection and normalize</text>
  <text x="307" y="884" text-anchor="middle" class="mono">(batch, 32, 57, 2) -> (batch, 32, chi)</text>

  <rect x="116" y="944" width="382" height="172" class="purple"/>
  <text x="307" y="980" text-anchor="middle" class="card-title">Leaf States For The Tree</text>
  <text x="307" y="1006" text-anchor="middle" class="body">32 leaf vectors enter the binary TTN</text>
  <text x="307" y="1031" text-anchor="middle" class="body">each leaf is a normalized state of size `chi`</text>
  <text x="307" y="1058" text-anchor="middle" class="small">this is the exact tensor interface consumed by `TensorMerge`</text>
  <rect x="146" y="1078" width="322" height="22" fill="#edf3fd" stroke="#bdd0e6" stroke-width="1.2" rx="10"/>
  <rect x="146" y="1078" width="82" height="22" fill="#dce8f9" stroke="#bdd0e6" stroke-width="1.2" rx="10"/>
  <rect x="236" y="1078" width="82" height="22" fill="#dce8f9" stroke="#bdd0e6" stroke-width="1.2" rx="10"/>
  <rect x="326" y="1078" width="82" height="22" fill="#dce8f9" stroke="#bdd0e6" stroke-width="1.2" rx="10"/>
  <rect x="416" y="1078" width="52" height="22" fill="#dce8f9" stroke="#bdd0e6" stroke-width="1.2" rx="10"/>
  <text x="307" y="1094" text-anchor="middle" class="tiny">32 leaves represented as `(batch, num_segments, chi)`</text>

  <path d="M307 420 L307 446" class="line"/>
  <path d="M307 582 L307 608" class="line"/>
  <path d="M307 746 L307 772" class="line"/>
  <path d="M307 918 L307 944" class="line"/>

  <rect x="562" y="164" width="1112" height="1124" class="panel"/>
  <text x="592" y="206" class="card-title">2. Explicit Tree Tensor Network</text>
  <text x="592" y="232" class="card-subtitle">THE MERGE STAGES IN `TTNIRClassifier.forward()`</text>

  <rect x="602" y="262" width="1032" height="126" class="chip"/>
  <text x="1118" y="300" text-anchor="middle" class="body">The model builds a strict binary reduction tree because `num_segments` must be a power of two.</text>
  <text x="1118" y="326" text-anchor="middle" class="body">At each level, adjacent node pairs are contracted by one shared `TensorMerge(chi, chi, chi)` module for that level.</text>
  <text x="1118" y="352" text-anchor="middle" class="small">Each merge renormalizes the output, keeping the TTN state stable across repeated contractions.</text>

  <text x="650" y="470" class="section">Level 0: 32 leaf states</text>
  <text x="650" y="376" class="tiny">leaf tensor shape: `(batch, chi)` per segment</text>
  <text x="706" y="476" class="tiny">0</text>
  <text x="734" y="476" class="tiny">1</text>
  <text x="762" y="476" class="tiny">2</text>
  <text x="790" y="476" class="tiny">3</text>
  <text x="818" y="476" class="tiny">4</text>
  <text x="846" y="476" class="tiny">5</text>
  <text x="874" y="476" class="tiny">6</text>
  <text x="902" y="476" class="tiny">7</text>
  <text x="944" y="476" class="tiny">...</text>
  <text x="1574" y="476" class="tiny">31</text>

  <text x="650" y="612" class="section">Level 1: 16 merged nodes</text>
  <text x="650" y="748" class="section">Level 2: 8 merged nodes</text>
  <text x="650" y="884" class="section">Level 3: 4 merged nodes</text>
  <text x="650" y="1020" class="section">Level 4: 2 merged nodes</text>
  <text x="650" y="1156" class="section">Level 5: root node</text>

  <text x="1558" y="612" text-anchor="end" class="small">32 -> 16 via `merge_levels[0]`</text>
  <text x="1558" y="748" text-anchor="end" class="small">16 -> 8 via `merge_levels[1]`</text>
  <text x="1558" y="884" text-anchor="end" class="small">8 -> 4 via `merge_levels[2]`</text>
  <text x="1558" y="1020" text-anchor="end" class="small">4 -> 2 via `merge_levels[3]`</text>
  <text x="1558" y="1156" text-anchor="end" class="small">2 -> 1 via `merge_levels[4]`</text>

  <circle cx="706" cy="500" r="10" class="leaf"/>
  <circle cx="734" cy="500" r="10" class="leaf"/>
  <circle cx="762" cy="500" r="10" class="leaf"/>
  <circle cx="790" cy="500" r="10" class="leaf"/>
  <circle cx="818" cy="500" r="10" class="leaf"/>
  <circle cx="846" cy="500" r="10" class="leaf"/>
  <circle cx="874" cy="500" r="10" class="leaf"/>
  <circle cx="902" cy="500" r="10" class="leaf"/>
  <circle cx="930" cy="500" r="10" class="leaf"/>
  <circle cx="958" cy="500" r="10" class="leaf"/>
  <circle cx="986" cy="500" r="10" class="leaf"/>
  <circle cx="1014" cy="500" r="10" class="leaf"/>
  <circle cx="1042" cy="500" r="10" class="leaf"/>
  <circle cx="1070" cy="500" r="10" class="leaf"/>
  <circle cx="1098" cy="500" r="10" class="leaf"/>
  <circle cx="1126" cy="500" r="10" class="leaf"/>
  <circle cx="1154" cy="500" r="10" class="leaf"/>
  <circle cx="1182" cy="500" r="10" class="leaf"/>
  <circle cx="1210" cy="500" r="10" class="leaf"/>
  <circle cx="1238" cy="500" r="10" class="leaf"/>
  <circle cx="1266" cy="500" r="10" class="leaf"/>
  <circle cx="1294" cy="500" r="10" class="leaf"/>
  <circle cx="1322" cy="500" r="10" class="leaf"/>
  <circle cx="1350" cy="500" r="10" class="leaf"/>
  <circle cx="1378" cy="500" r="10" class="leaf"/>
  <circle cx="1406" cy="500" r="10" class="leaf"/>
  <circle cx="1434" cy="500" r="10" class="leaf"/>
  <circle cx="1462" cy="500" r="10" class="leaf"/>
  <circle cx="1490" cy="500" r="10" class="leaf"/>
  <circle cx="1518" cy="500" r="10" class="leaf"/>
  <circle cx="1546" cy="500" r="10" class="leaf"/>
  <circle cx="1574" cy="500" r="10" class="leaf"/>

  <circle cx="720" cy="636" r="11" class="merge"/>
  <circle cx="776" cy="636" r="11" class="merge"/>
  <circle cx="832" cy="636" r="11" class="merge"/>
  <circle cx="888" cy="636" r="11" class="merge"/>
  <circle cx="944" cy="636" r="11" class="merge"/>
  <circle cx="1000" cy="636" r="11" class="merge"/>
  <circle cx="1056" cy="636" r="11" class="merge"/>
  <circle cx="1112" cy="636" r="11" class="merge"/>
  <circle cx="1168" cy="636" r="11" class="merge"/>
  <circle cx="1224" cy="636" r="11" class="merge"/>
  <circle cx="1280" cy="636" r="11" class="merge"/>
  <circle cx="1336" cy="636" r="11" class="merge"/>
  <circle cx="1392" cy="636" r="11" class="merge"/>
  <circle cx="1448" cy="636" r="11" class="merge"/>
  <circle cx="1504" cy="636" r="11" class="merge"/>
  <circle cx="1560" cy="636" r="11" class="merge"/>

  <circle cx="748" cy="772" r="12" class="merge"/>
  <circle cx="860" cy="772" r="12" class="merge"/>
  <circle cx="972" cy="772" r="12" class="merge"/>
  <circle cx="1084" cy="772" r="12" class="merge"/>
  <circle cx="1196" cy="772" r="12" class="merge"/>
  <circle cx="1308" cy="772" r="12" class="merge"/>
  <circle cx="1420" cy="772" r="12" class="merge"/>
  <circle cx="1532" cy="772" r="12" class="merge"/>

  <circle cx="804" cy="908" r="13" class="merge"/>
  <circle cx="1028" cy="908" r="13" class="merge"/>
  <circle cx="1252" cy="908" r="13" class="merge"/>
  <circle cx="1476" cy="908" r="13" class="merge"/>

  <circle cx="916" cy="1044" r="14" class="merge"/>
  <circle cx="1364" cy="1044" r="14" class="merge"/>

  <circle cx="1140" cy="1180" r="18" class="root"/>

  <path d="M706 510 L720 625" class="tree-line"/>
  <path d="M734 510 L720 625" class="tree-line"/>
  <path d="M762 510 L776 625" class="tree-line"/>
  <path d="M790 510 L776 625" class="tree-line"/>
  <path d="M818 510 L832 625" class="tree-line"/>
  <path d="M846 510 L832 625" class="tree-line"/>
  <path d="M874 510 L888 625" class="tree-line"/>
  <path d="M902 510 L888 625" class="tree-line"/>
  <path d="M930 510 L944 625" class="tree-line"/>
  <path d="M958 510 L944 625" class="tree-line"/>
  <path d="M986 510 L1000 625" class="tree-line"/>
  <path d="M1014 510 L1000 625" class="tree-line"/>
  <path d="M1042 510 L1056 625" class="tree-line"/>
  <path d="M1070 510 L1056 625" class="tree-line"/>
  <path d="M1098 510 L1112 625" class="tree-line"/>
  <path d="M1126 510 L1112 625" class="tree-line"/>
  <path d="M1154 510 L1168 625" class="tree-line"/>
  <path d="M1182 510 L1168 625" class="tree-line"/>
  <path d="M1210 510 L1224 625" class="tree-line"/>
  <path d="M1238 510 L1224 625" class="tree-line"/>
  <path d="M1266 510 L1280 625" class="tree-line"/>
  <path d="M1294 510 L1280 625" class="tree-line"/>
  <path d="M1322 510 L1336 625" class="tree-line"/>
  <path d="M1350 510 L1336 625" class="tree-line"/>
  <path d="M1378 510 L1392 625" class="tree-line"/>
  <path d="M1406 510 L1392 625" class="tree-line"/>
  <path d="M1434 510 L1448 625" class="tree-line"/>
  <path d="M1462 510 L1448 625" class="tree-line"/>
  <path d="M1490 510 L1504 625" class="tree-line"/>
  <path d="M1518 510 L1504 625" class="tree-line"/>
  <path d="M1546 510 L1560 625" class="tree-line"/>
  <path d="M1574 510 L1560 625" class="tree-line"/>

  <path d="M720 647 L748 760" class="tree-line"/>
  <path d="M776 647 L748 760" class="tree-line"/>
  <path d="M832 647 L860 760" class="tree-line"/>
  <path d="M888 647 L860 760" class="tree-line"/>
  <path d="M944 647 L972 760" class="tree-line"/>
  <path d="M1000 647 L972 760" class="tree-line"/>
  <path d="M1056 647 L1084 760" class="tree-line"/>
  <path d="M1112 647 L1084 760" class="tree-line"/>
  <path d="M1168 647 L1196 760" class="tree-line"/>
  <path d="M1224 647 L1196 760" class="tree-line"/>
  <path d="M1280 647 L1308 760" class="tree-line"/>
  <path d="M1336 647 L1308 760" class="tree-line"/>
  <path d="M1392 647 L1420 760" class="tree-line"/>
  <path d="M1448 647 L1420 760" class="tree-line"/>
  <path d="M1504 647 L1532 760" class="tree-line"/>
  <path d="M1560 647 L1532 760" class="tree-line"/>

  <path d="M748 784 L804 894" class="tree-line"/>
  <path d="M860 784 L804 894" class="tree-line"/>
  <path d="M972 784 L1028 894" class="tree-line"/>
  <path d="M1084 784 L1028 894" class="tree-line"/>
  <path d="M1196 784 L1252 894" class="tree-line"/>
  <path d="M1308 784 L1252 894" class="tree-line"/>
  <path d="M1420 784 L1476 894" class="tree-line"/>
  <path d="M1532 784 L1476 894" class="tree-line"/>

  <path d="M804 921 L916 1030" class="tree-line"/>
  <path d="M1028 921 L916 1030" class="tree-line"/>
  <path d="M1252 921 L1364 1030" class="tree-line"/>
  <path d="M1476 921 L1364 1030" class="tree-line"/>

  <path d="M916 1058 L1140 1162" class="tree-line"/>
  <path d="M1364 1058 L1140 1162" class="tree-line"/>

  <rect x="1608" y="450" width="24" height="24" class="leaf"/>
  <text x="1642" y="467" class="tiny">segment state after `SegmentCompressor`</text>
  <rect x="1608" y="484" width="24" height="24" class="merge"/>
  <text x="1642" y="501" class="tiny">intermediate node after one `TensorMerge`</text>
  <rect x="1608" y="518" width="24" height="24" class="root"/>
  <text x="1642" y="535" class="tiny">single root state used by output head</text>

  <rect x="1706" y="164" width="404" height="1124" class="panel"/>
  <text x="1736" y="206" class="card-title">3. Output Head And Code Mapping</text>
  <text x="1736" y="232" class="card-subtitle">HOW THE ROOT BECOMES LOGITS</text>

  <rect x="1740" y="276" width="336" height="128" class="rose"/>
  <text x="1908" y="312" text-anchor="middle" class="card-title">Output Head</text>
  <text x="1908" y="338" text-anchor="middle" class="body">root vector shape `(batch, chi)`</text>
  <text x="1908" y="364" text-anchor="middle" class="mono">nn.Linear(chi, num_labels)</text>
  <text x="1908" y="389" text-anchor="middle" class="small">returns logits, optional sigmoid in forward()</text>

  <rect x="1740" y="430" width="336" height="170" class="chip"/>
  <text x="1908" y="466" text-anchor="middle" class="card-title">Forward Pass Summary</text>
  <text x="1908" y="494" text-anchor="middle" class="mono">x -> segments -> feature_map -> compressor</text>
  <text x="1908" y="519" text-anchor="middle" class="mono">-> 5 merge levels -> root -> output_head</text>
  <text x="1908" y="548" text-anchor="middle" class="body">the tree is the core architectural idea</text>
  <text x="1908" y="572" text-anchor="middle" class="body">all other blocks prepare or consume tree states</text>

  <rect x="1740" y="626" width="336" height="232" class="blue"/>
  <text x="1908" y="662" text-anchor="middle" class="card-title">Mapped To Classes In `model.py`</text>
  <text x="1770" y="700" class="mono">QuantumFeatureMap</text>
  <text x="1770" y="726" class="small">cosine-sine embedding with `x_max` scaling</text>
  <text x="1770" y="766" class="mono">SegmentCompressor</text>
  <text x="1770" y="792" class="small">flatten + linear projection to bond dimension `chi`</text>
  <text x="1770" y="832" class="mono">TensorMerge</text>
  <text x="1770" y="858" class="small">learnable rank-3 tensor contraction `(..., chi) x (..., chi)`</text>
  <text x="1770" y="898" class="mono">TTNIRClassifier</text>
  <text x="1770" y="924" class="small">orchestrates segmentation, tree reduction, and final logits</text>

  <rect x="1740" y="884" width="336" height="184" class="green"/>
  <text x="1908" y="920" text-anchor="middle" class="card-title">Key Constraints From The Code</text>
  <text x="1770" y="956" class="small">`num_segments` must be a power of two</text>
  <text x="1770" y="986" class="small">`input_dim` must match the spectrum length</text>
  <text x="1770" y="1016" class="small">all node states live in the same bond dimension `chi`</text>
  <text x="1770" y="1046" class="small">tree depth is `log2(num_segments)`</text>

  <rect x="1740" y="1094" width="336" height="136" class="amber"/>
  <text x="1908" y="1130" text-anchor="middle" class="card-title">Typical Default Configuration</text>
  <text x="1908" y="1158" text-anchor="middle" class="body">`input_dim = 1800`, `num_segments = 32`</text>
  <text x="1908" y="1184" text-anchor="middle" class="body">`max_segment_length = 57`, depth = 5</text>
  <text x="1908" y="1210" text-anchor="middle" class="body">`chi` and `num_labels` remain configurable</text>

  <path d="M498 1030 C548 1030 570 1030 602 1030" class="line"/>
  <path d="M1674 1180 C1702 1180 1718 1180 1740 1180" class="line"/>

  <path d="M1140 1180 C1600 1180 1700 340 1740 340" class="soft-line"/>

  <text x="1100" y="1320" text-anchor="middle" class="card-title">Model Essence</text>
  <text x="1100" y="1346" text-anchor="middle" class="body">The TTN model does not use a generic dense stack as its main encoder. It converts spectrum segments into local states and then reduces them through an explicit binary tensor tree until one root representation remains.</text>
</svg>
